<svg width="153" height="340" viewBox="0 0 153 340" fill="none" xmlns="http://www.w3.org/2000/svg">
<path d="M66.3895 17.0862L66.381 17.0762C65.5571 16.1069 64.8273 14.9882 64.3053 13.9929C64.0445 13.4955 63.8393 13.0359 63.7006 12.6475C63.5577 12.2475 63.5 11.9627 63.5 11.8C63.5 10.1253 64.2287 8.06702 65.3753 6.21301C66.5219 4.35895 68.0356 2.79126 69.5236 2.04724C76.2981 -1.34003 84.4629 1.39349 87.1379 7.79108C87.9657 9.83743 88.2063 11.4521 87.8623 12.9775C87.5159 14.5129 86.5605 16.0342 84.8368 17.8564L84.8331 17.8603L82.3331 20.5604L82.1147 20.7962L82.2387 21.0929L85.0387 27.7928L85.043 27.8032C86.6637 31.4495 91.9872 40.1823 96.8904 47.1868L96.8938 47.1917C110.916 66.723 113.336 70.9277 114.51 76.6997L114.51 76.7018C116.068 84.1954 114.067 90.4476 106.087 102.318C104.284 104.923 102.655 107.403 101.476 109.285C100.887 110.225 100.408 111.019 100.075 111.606C99.9084 111.899 99.7752 112.146 99.6823 112.337C99.6361 112.431 99.5962 112.52 99.5666 112.597C99.5461 112.65 99.5 112.771 99.5 112.9C99.5 113.059 99.5525 113.197 99.605 113.3C99.6597 113.407 99.7318 113.508 99.8096 113.601C99.9652 113.788 100.176 113.981 100.418 114.17C100.904 114.548 101.566 114.943 102.301 115.259C103.882 115.957 104.489 116.978 104.45 117.904C104.411 118.855 103.685 119.948 102.08 120.751C101.002 121.265 100.206 121.813 99.6953 122.587C99.1806 123.366 99 124.305 99 125.5C99 126.798 99.1811 127.771 99.9499 128.643C100.678 129.469 101.897 130.157 103.784 131.051C105.629 131.949 106.729 132.615 107.486 133.418C108.23 134.207 108.677 135.165 109.118 136.732C109.841 139.418 111.108 141.263 113.076 142.247L113.082 142.25C114.557 142.964 115.706 144.003 116.389 145.091C117.076 146.185 117.258 147.268 116.933 148.122L116.928 148.134L116.929 148.134C116.822 148.434 116.534 148.808 116.05 149.212C115.576 149.607 114.958 149.996 114.265 150.34C112.87 151.031 111.248 151.5 110 151.5C109.227 151.5 108.549 151.861 107.988 152.493C107.438 153.114 106.987 154.008 106.627 155.139C105.88 157.184 104.188 159.004 101.141 160.872C101.14 160.873 101.14 160.873 101.139 160.874L96.4441 163.671L96.1929 163.82L96.2002 164.112L96.8001 188.312C96.8001 188.312 96.8002 188.312 96.8002 188.312M66.3895 17.0862L103.7 239C99.4 225.8 97.9 214.2 97.3 188.3L96.8002 188.312M66.3895 17.0862L66.3975 17.0967L69.2975 20.8967L69.4683 21.1205L69.3655 21.3826L67.3675 26.4774L66.9 26.3L67.3655 26.4826L67.3665 26.4799C65.1394 32.3503 61.5981 38.0029 50.9061 52.8917L50.905 52.8932C45.0015 61.0481 41.5521 66.1647 39.5739 70.1953C37.6112 74.1943 37.1 77.1176 37.1001 80.9001L37.0999 80.909C37.0501 83.6977 37.1515 85.5182 37.597 87.2639C38.043 89.0119 38.8418 90.7158 40.2383 93.2594L40.2389 93.2606C42.029 96.5425 45.4159 101.921 47.8985 105.198C49.1559 106.858 50.2892 108.495 51.1103 109.796C51.5204 110.445 51.8566 111.018 52.0921 111.471C52.2095 111.697 52.306 111.901 52.3744 112.075C52.4353 112.23 52.5 112.422 52.5 112.6C52.5 112.892 52.3715 113.166 52.2223 113.39C52.0669 113.623 51.8537 113.855 51.6072 114.074C51.1139 114.512 50.4431 114.94 49.699 115.259M66.3895 17.0862L38.743 142.437M96.8002 188.312C97.4005 214.227 98.9019 225.885 103.225 239.155L103.225 239.156C106.739 249.899 113.164 262.356 118.81 269.412L118.813 269.417C120.147 271.048 121.485 272.955 122.576 274.702C123.672 276.459 124.497 278.019 124.828 278.964M96.8002 188.312L124.828 278.964M124.828 278.964C124.828 278.964 124.828 278.964 124.828 278.964L125.3 278.8M124.828 278.964L119.2 269.1C121.9 272.4 124.6 276.8 125.3 278.8M124.828 278.964C124.828 278.965 124.828 278.965 124.828 278.965L125.3 278.8M124.828 278.964C125.776 281.703 127.571 283.783 131.128 286.02M125.3 278.8C126.2 281.4 127.9 283.4 131.4 285.6M131.4 285.6L131.123 286.016C131.125 286.017 131.126 286.019 131.128 286.02M131.4 285.6C138 290 141 293 144.8 299.3M131.4 285.6L131.134 286.023C131.132 286.022 131.13 286.021 131.128 286.02M131.128 286.02C134.412 288.209 136.779 290.036 138.793 292.088C140.807 294.139 142.484 296.429 144.372 299.558M144.8 299.3L144.371 299.556C144.371 299.557 144.371 299.558 144.372 299.558M144.8 299.3C148.8 306 150.1 313.7 147.6 317.4C145.3 321 145.6 322.3 149 324.3M144.8 299.3L144.372 299.558M144.372 299.558C146.342 302.86 147.642 306.399 148.144 309.554C148.648 312.728 148.331 315.425 147.186 317.12L147.179 317.131L147.179 317.131C146.597 318.042 146.162 318.833 145.901 319.543C145.639 320.257 145.542 320.918 145.673 321.552C145.935 322.814 147.055 323.736 148.743 324.729M148.743 324.729C148.743 324.729 148.742 324.728 148.741 324.728L149 324.3M148.743 324.729C148.744 324.73 148.745 324.73 148.746 324.731L149 324.3M148.743 324.729C150.297 325.672 151.448 327.109 152.021 328.593C152.596 330.084 152.567 331.556 151.879 332.631C151.192 333.704 149.568 334.643 146.379 335.44C143.219 336.23 138.653 336.852 132.257 337.402L132.256 337.402C111.983 339.2 65.0064 339.8 40.024 338.601L40.023 338.601C22.6553 337.8 12.7079 337.1 7.09938 335.813C4.29339 335.169 2.66071 334.394 1.7236 333.459C0.81374 332.55 0.5 331.427 0.5 329.9C0.5 328.878 0.706062 328.134 1.18492 327.449C1.67834 326.742 2.48683 326.06 3.77362 325.219L3.77481 325.218C4.72869 324.59 5.48687 324.048 6.04657 323.541C6.60428 323.036 7.00546 322.531 7.18816 321.967C7.37688 321.384 7.3111 320.808 7.07176 320.212C6.83842 319.631 6.43022 319.007 5.9 318.3L5.89855 318.298C4.75933 316.794 4.30237 314.296 4.573 311.282C4.84181 308.289 5.82203 304.874 7.44721 301.624L7.44994 301.618L7.44991 301.618C10.6029 295.115 14.6331 290.78 21.8707 286.12L21.8746 286.118C25.4169 283.79 27.1363 281.903 27.8828 279.13L27.8835 279.127C28.1126 278.257 28.8748 276.764 29.9382 275.037C30.9902 273.329 32.3037 271.446 33.5914 269.811M149 324.3C152.3 326.3 153.9 330.4 152.3 332.9C150.7 335.4 145.1 336.8 132.3 337.9L51.6 161.5M33.5914 269.811C33.591 269.812 33.5905 269.812 33.5901 269.813L33.2 269.5L33.5927 269.809C33.5923 269.81 33.5919 269.811 33.5914 269.811ZM33.5914 269.811C42.5561 258.63 50.683 238.845 53.4935 221.58L53.4936 221.58C54.3485 216.299 55.1494 205.899 55.6494 195.737C56.1492 185.579 56.3514 175.597 55.9984 171.16L55.9982 171.158C55.8234 169.111 55.685 167.548 55.527 166.343C55.3697 165.142 55.1885 164.256 54.9136 163.575C54.63 162.873 54.2478 162.393 53.7116 162.006C53.201 161.637 52.5585 161.36 51.7961 161.04M51.7961 161.04C51.7969 161.04 51.7977 161.041 51.7985 161.041L51.6 161.5M51.7961 161.04C51.7952 161.04 51.7943 161.039 51.7934 161.039L51.6 161.5M51.7961 161.04C48.1892 159.48 45.8492 156.988 45.2911 154.406M51.6 161.5C47.9 159.9 45.4 157.3 44.8 154.5M45.2911 154.406C45.2918 154.41 45.2925 154.414 45.2932 154.418L44.8 154.5M45.2911 154.406C45.0318 152.892 43.5478 151.921 41.4158 151.414L41.3991 151.41L41.3822 151.407C40.5244 151.264 39.5593 150.975 38.7107 150.636C37.8488 150.291 37.1635 149.916 36.8293 149.624L36.821 149.617L36.8123 149.61C35.7449 148.756 35.4232 147.448 35.7719 146.087C36.1226 144.717 37.1533 143.326 38.743 142.437M45.2911 154.406C45.2904 154.402 45.2896 154.399 45.2889 154.395L44.8 154.5M44.8 154.5L38.743 142.437M38.743 142.437C38.7423 142.437 38.7416 142.438 38.741 142.438L38.5 142L38.7439 142.437C38.7436 142.437 38.7433 142.437 38.743 142.437ZM38.743 142.437C40.8831 141.259 42.2503 139.337 43.0779 136.647L43.0813 136.636L43.0841 136.625C43.4757 135.108 43.899 134.151 44.6289 133.365C45.3705 132.567 46.4682 131.9 48.3088 131.054L48.3188 131.05L48.3187 131.05C50.1577 130.155 51.3514 129.466 52.0658 128.64C52.819 127.768 53 126.797 53 125.5C53 124.304 52.8192 123.369 52.3208 122.593C51.8244 121.819 51.0553 121.269 50.0236 120.753L50.0185 120.75C48.3586 119.944 47.6112 118.848 47.5618 117.899C47.5138 116.977 48.117 115.958 49.699 115.259M49.699 115.259C49.6983 115.259 49.6977 115.259 49.697 115.26L49.5 114.8L49.7018 115.258C49.7009 115.258 49.7 115.258 49.699 115.259Z" fill="#40B3A2" stroke="#E27D5F"/>
</svg>
